<?xml version="1.0" encoding="UTF-8"?>
<svg version="1.1" xmlns="http://www.w3.org/2000/svg" width="512" height="512">
<path d="M0 0 C1.24387708 -0.00384115 2.48775416 -0.00768229 3.76932448 -0.01163983 C5.14689241 -0.01085964 6.52446028 -0.00998087 7.90202808 -0.00901413 C9.36764616 -0.01159857 10.83326353 -0.01461195 12.29887992 -0.01801753 C16.32724086 -0.02608157 20.35558397 -0.02787677 24.38395202 -0.028615 C28.72834079 -0.03046659 33.07272034 -0.03801447 37.41710377 -0.04475021 C46.91717488 -0.05832984 56.41724177 -0.06435768 65.91732097 -0.06876087 C71.84978338 -0.07152393 77.78224416 -0.0757614 83.71470547 -0.08026505 C100.14158717 -0.09245724 116.56846757 -0.10275664 132.9953537 -0.10614014 C134.57227127 -0.10646949 134.57227127 -0.10646949 136.18104576 -0.10680549 C137.23483215 -0.10702377 138.28861854 -0.10724204 139.37433785 -0.10746694 C141.50969199 -0.1079104 143.64504614 -0.10835696 145.78040028 -0.10880661 C146.83960852 -0.10902804 147.89881677 -0.10924947 148.99012224 -0.10947761 C166.15169607 -0.11342532 183.31322744 -0.13087875 200.47478487 -0.15416613 C218.09640652 -0.17788469 235.71800686 -0.19034222 253.33964473 -0.19150805 C263.23268243 -0.19242453 273.1256648 -0.19817 283.01868725 -0.21632767 C291.44311448 -0.23173544 299.86746928 -0.23684511 308.29190793 -0.22858956 C312.58882653 -0.22468547 316.88559928 -0.22560092 321.18249989 -0.23964691 C325.11999199 -0.25240014 329.05722886 -0.25117592 332.99472068 -0.2390562 C334.41533438 -0.23710166 335.83596625 -0.24016638 337.25655445 -0.24890056 C351.81718449 -0.33271944 363.1822423 2.77003768 374.10291004 12.75642776 C383.83137035 23.05599202 386.16507178 35.60570362 386.11360645 49.23135757 C386.117432 50.31680554 386.12125755 51.4022535 386.12519902 52.52059382 C386.13547898 56.1406776 386.13154634 59.76060128 386.12756824 63.38069534 C386.1319175 65.98321046 386.13710136 68.5857243 386.14305592 71.18823624 C386.15577557 77.51371629 386.1576 83.83915383 386.15525565 90.16464452 C386.15346912 95.30925931 386.15522931 100.45386125 386.15948009 105.5984745 C386.16007528 106.33203651 386.16067047 107.06559851 386.1612837 107.82138967 C386.16249551 109.31186909 386.16370965 110.80234851 386.16492607 112.29282793 C386.17579127 126.25666606 386.17364407 140.22048003 386.16754123 154.18431952 C386.16237407 166.94059429 386.17362402 179.69679266 386.19263945 192.45305232 C386.21204255 205.57058636 386.22026945 218.68808429 386.2165162 231.80563277 C386.21460776 239.16232709 386.21705665 246.5189564 386.23123074 253.87563896 C386.2444295 260.79580845 386.24185098 267.71582292 386.22881985 274.63599205 C386.22645765 277.17073748 386.22917588 279.7054937 386.23744297 282.24022675 C386.24794216 285.71050923 386.23978379 289.18028239 386.22713184 292.65054703 C386.23450613 293.6444461 386.24188041 294.63834517 386.24947816 295.6623624 C386.14715208 309.07940918 382.34944763 320.28210532 373.35291004 330.31892776 C365.31181581 337.97118766 354.71688487 342.25007743 343.70582008 342.26285553 C341.84000447 342.26861725 341.84000447 342.26861725 339.9364956 342.27449536 C338.55892768 342.27371517 337.18135981 342.2728364 335.803792 342.27186966 C334.33817393 342.2744541 332.87255656 342.27746748 331.40694016 342.28087306 C327.37857923 342.2889371 323.35023611 342.2907323 319.32186806 342.29147053 C314.97747929 342.29332212 310.63309975 342.30087 306.28871632 342.30760574 C296.78864521 342.32118537 287.28857832 342.32721321 277.78849912 342.3316164 C271.85603671 342.33437946 265.92357593 342.33861693 259.99111462 342.34312057 C243.56423291 342.35531277 227.13735251 342.36561217 210.71046638 342.36899567 C209.659188 342.36921523 208.60790962 342.3694348 207.52477432 342.36966102 C206.47098793 342.3698793 205.41720154 342.37009757 204.33148223 342.37032247 C202.19612809 342.37076593 200.06077395 342.37121249 197.92541981 342.37166214 C196.86621156 342.37188357 195.80700331 342.372105 194.71569785 342.37233314 C177.55412401 342.37628085 160.39259264 342.39373428 143.23103521 342.41702166 C125.60941356 342.44074022 107.98781322 342.45319775 90.36617535 342.45436358 C80.47313765 342.45528006 70.58015529 342.46102552 60.68713284 342.4791832 C52.2627056 342.49459097 43.8383508 342.49970064 35.41391215 342.49144509 C31.11699356 342.487541 26.82022081 342.48845645 22.5233202 342.50250244 C18.5858281 342.51525567 14.64859123 342.51403145 10.71109941 342.50191173 C9.29048571 342.49995719 7.86985383 342.50302191 6.44926564 342.51175609 C-8.1113644 342.59557497 -19.47642221 339.49281785 -30.39708996 329.50642776 C-40.12555027 319.20686351 -42.4592517 306.65715191 -42.40778637 293.03149796 C-42.41161192 291.94604999 -42.41543746 290.86060203 -42.41937894 289.74226171 C-42.4296589 286.12217793 -42.42572625 282.50225425 -42.42174816 278.88216019 C-42.42609742 276.27964507 -42.43128128 273.67713123 -42.43723583 271.07461929 C-42.44995549 264.74913924 -42.45177991 258.4237017 -42.44943557 252.09821101 C-42.44764904 246.95359622 -42.44940923 241.80899428 -42.45366001 236.66438103 C-42.4542552 235.93081902 -42.45485039 235.19725702 -42.45546361 234.44146586 C-42.45667543 232.95098644 -42.45788956 231.46050702 -42.45910599 229.9700276 C-42.46997119 216.00618947 -42.46782399 202.0423755 -42.46172114 188.07853601 C-42.45655398 175.32226124 -42.46780394 162.56606287 -42.48681936 149.80980321 C-42.50622247 136.69226917 -42.51444936 123.57477123 -42.51069611 110.45722276 C-42.50878768 103.10052844 -42.51123657 95.74389913 -42.52541065 88.38721657 C-42.53860942 81.46704708 -42.53603089 74.54703261 -42.52299976 67.62686348 C-42.52063757 65.09211805 -42.5233558 62.55736183 -42.53162289 60.02262878 C-42.54212207 56.5523463 -42.53396371 53.08257314 -42.52131176 49.6123085 C-42.52868604 48.61840943 -42.53606033 47.62451036 -42.54365808 46.60049313 C-42.441332 33.18344635 -38.64362754 21.98075021 -29.64708996 11.94392776 C-21.60599572 4.29166787 -11.01106478 0.0127781 0 0 Z M26.85291004 73.13142776 C23.69209257 77.8366186 22.40857684 82.01308579 22.32166004 87.66267776 C23.94467092 95.20490477 28.54379969 100.39368564 33.9163866 105.64900589 C34.61922779 106.35243118 35.32206898 107.05585648 36.04620838 107.78059769 C38.35262284 110.0842438 40.67284032 112.373426 42.99353504 114.66267776 C44.602949 116.26462496 46.2114773 117.86746239 47.8191576 119.47114944 C52.03865572 123.67542587 56.27002996 127.86754727 60.50403309 132.05720901 C64.82811627 136.3402652 69.14080064 140.63476556 73.45447254 144.92830276 C81.90953223 153.34055264 90.37718881 161.73999927 98.85291004 170.13142776 C97.55257525 173.00264931 96.18590344 175.0393269 93.93715382 177.24058914 C93.04342564 178.12326714 93.04342564 178.12326714 92.13164234 179.02377701 C91.47964359 179.65758789 90.82764484 180.29139877 90.15588856 180.94441605 C89.46791187 181.62144073 88.77993519 182.29846542 88.07111073 182.99600601 C86.57751 184.46526681 85.08179812 185.93238384 83.58423519 187.3976059 C81.2118171 189.72132896 78.84786967 192.05334745 76.4864397 194.38823318 C69.7720387 201.02633373 63.05141129 207.65789093 56.30383778 214.26228714 C52.17556461 218.30416291 48.06475531 222.36311206 43.96458721 226.43348694 C42.40213448 227.97803559 40.83328209 229.51613909 39.25788021 231.04747772 C37.04850693 233.19630086 34.86207535 235.36625485 32.67932606 237.5420723 C32.02935154 238.16373779 31.37937702 238.78540329 30.70970631 239.42590714 C25.51595802 244.67806467 22.84693456 250.61396591 22.85681629 258.08455276 C24.56426373 265.1053856 26.66729726 269.90844942 32.91541004 273.94392776 C37.79846443 276.84001952 42.18373521 277.81582334 47.85291004 277.13142776 C55.55544527 274.88902529 60.57104205 270.12459129 66.08874989 264.52669144 C66.9630666 263.65953003 67.83738331 262.79236862 68.73819447 261.8989296 C71.11507189 259.53598867 73.48028924 257.16249172 75.8402791 254.78275466 C78.32141539 252.28513485 80.8152383 249.80023492 83.30716419 247.31338882 C87.48669777 243.13836415 91.65597147 238.95330437 95.81921864 234.762043 C100.62335838 229.92582537 105.44336377 225.10587789 110.27217424 220.29430217 C114.93152648 215.65084402 119.57946842 210.99612299 124.2223444 206.33619499 C126.19229289 204.35939837 128.16609941 202.38657876 130.14317417 200.41691017 C132.90495105 197.66425636 135.6499313 194.89521751 138.39343739 192.12434769 C139.21007862 191.31423233 140.02671986 190.50411697 140.8681078 189.66945267 C146.25765281 184.18827241 150.27700849 179.24825926 150.29041004 171.19392776 C150.31941395 170.03570511 150.31941395 170.03570511 150.34900379 168.85408401 C148.79149153 160.30616241 143.17330753 154.87987868 137.23230457 149.00911331 C136.36353687 148.13494263 135.49476917 147.26077194 134.59967518 146.36011124 C132.23086732 143.98098729 129.85351671 141.61111055 127.47130537 139.24545264 C124.97206078 136.76013221 122.48305901 134.2645886 119.99252796 131.77054214 C115.81152639 127.586845 111.6225414 123.41127531 107.42859364 119.24055862 C102.58745768 114.42605436 97.75890052 109.59921159 92.93693554 104.76551217 C88.28586505 100.1036463 83.62633171 95.45032976 78.96280003 90.80093193 C76.98336183 88.82723564 75.0068517 86.85067496 73.03266239 84.8717289 C70.27456916 82.10795791 67.50412287 79.35677852 64.73230457 76.60676956 C63.91859394 75.78855728 63.10488331 74.970345 62.26651478 74.12733841 C57.60935785 69.53089614 53.58937544 65.62767708 46.85291004 64.73299026 C38.02900974 64.80192699 32.73619923 66.16437478 26.85291004 73.13142776 Z M155.73962879 242.91658401 C152.11280922 247.17415482 151.10964903 251.11419284 150.41541004 256.56892776 C151.32761868 263.9969124 154.18520694 269.22571132 159.97400379 273.94002151 C164.13554501 276.57883664 167.74211564 277.3824828 172.63936329 277.3988533 C173.79582859 277.40738327 174.95229389 277.41591324 176.1438036 277.42470169 C178.03358936 277.42334213 178.03358936 277.42334213 179.96155262 277.42195511 C181.30890239 277.42794303 182.65624873 277.43474918 184.00359058 277.44231033 C187.65662613 277.45995206 191.30956793 277.46466497 194.96264195 277.46594191 C197.24740618 277.46736524 199.5321467 277.47163832 201.81690502 277.47693634 C209.79482373 277.49543145 217.77267568 277.50360771 225.75061512 277.50203323 C233.17549644 277.50083237 240.60008681 277.52192503 248.02489454 277.55352056 C254.40894552 277.57971462 260.79290167 277.5903992 267.17700595 277.58912241 C270.98572759 277.58861364 274.79419065 277.59424931 278.60285854 277.61547852 C282.18743964 277.63491367 285.77151692 277.63494996 289.35611629 277.62044525 C291.28924609 277.6173738 293.22237622 277.63399719 295.15543079 277.65132523 C303.1229387 277.59394878 308.6279474 276.70388653 314.87634754 271.42049026 C319.57452192 265.6360328 321.508429 260.73544767 320.85291004 253.13142776 C319.66924411 246.73705853 316.28910553 243.11122655 311.59509754 238.79549026 C304.2793897 234.35604362 295.51563737 234.84345891 287.22400379 234.8726387 C285.37103184 234.86738174 285.37103184 234.86738174 283.48062611 234.86201859 C280.11693812 234.85476121 276.75349855 234.85641045 273.38982487 234.86277676 C269.85464892 234.86787221 266.31948293 234.86313551 262.78430653 234.86000443 C256.84979842 234.85637505 250.91534024 234.86113678 244.98083973 234.87068558 C238.13878185 234.88156816 231.2968432 234.87804185 224.45478821 234.86703277 C218.5598124 234.85793048 212.66487231 234.85668895 206.76989174 234.8619101 C203.25806508 234.86501368 199.7462943 234.86548383 196.23447132 234.85883713 C192.31687321 234.85193914 188.39940658 234.86152434 184.48181629 234.8726387 C183.33141865 234.86859024 182.181021 234.86454178 180.99576283 234.86037064 C170.71554016 234.91423357 163.32467417 235.59628717 155.73962879 242.91658401 Z " fill="#000000" transform="translate(84.14708995819092,84.86857223510742)"/>
</svg>
