<?xml version="1.0" encoding="UTF-8"?>
<svg version="1.1" xmlns="http://www.w3.org/2000/svg" width="508" height="419">
<path d="M0 0 C1.39670064 -0.00302822 2.79339962 -0.00692103 4.19009572 -0.01159257 C7.99113579 -0.02179528 11.79208073 -0.01971067 15.59312832 -0.01541197 C19.70713045 -0.01293053 23.8211105 -0.02197649 27.93510437 -0.02944946 C35.9812484 -0.04216 44.027359 -0.04399466 52.07351138 -0.0416492 C58.61910324 -0.03986153 65.164685 -0.04162529 71.71027565 -0.04587364 C72.64416473 -0.04646883 73.57805381 -0.04706402 74.54024256 -0.04767724 C76.43786245 -0.04888908 78.33548235 -0.05010322 80.23310224 -0.05131962 C98.00608265 -0.06218145 115.77904406 -0.0600393 133.55202553 -0.05393478 C149.77974407 -0.04876876 166.00740252 -0.06001516 182.23510917 -0.07903299 C198.93041653 -0.09844755 215.62569552 -0.10666094 232.32101423 -0.10290974 C241.68098097 -0.10100293 251.04089662 -0.10343418 260.40085411 -0.11762428 C268.3706867 -0.12958538 276.34043674 -0.1308904 284.31027057 -0.11883412 C288.36925359 -0.11297798 292.42808598 -0.11175441 296.48705864 -0.12383652 C326.3200594 -0.20644698 354.20949111 0.83996037 377.11775208 22.47554016 C390.70720225 37.20088662 396.03454876 56.66602356 395.94203186 76.26582336 C395.94515184 77.30483197 395.94827182 78.34384058 395.95148635 79.4143343 C395.95939648 82.85927496 395.95317013 86.30403602 395.94685364 89.74897766 C395.9495666 92.23370974 395.95312925 94.71844101 395.95747375 97.20317078 C395.96562159 103.22946492 395.96446379 109.25568985 395.95864847 115.28198123 C395.95411607 120.18338857 395.95352588 125.08478196 395.95569611 129.9861908 C395.95600257 130.686042 395.95630904 131.3858932 395.95662479 132.10695201 C395.9572643 133.52906283 395.95791272 134.95117365 395.95856997 136.37328446 C395.96426149 149.68188798 395.95773393 162.99046386 395.94696924 176.29906285 C395.9380348 187.69742068 395.93958718 199.09573776 395.94880676 210.49409485 C395.95953028 223.75783934 395.96371227 237.02155966 395.95758224 250.28530788 C395.95694519 251.70193926 395.95631645 253.11857064 395.95569611 254.53520203 C395.95538755 255.23205764 395.955079 255.92891325 395.9547611 256.64688569 C395.9530404 261.53758123 395.95593574 266.42826132 395.96065521 271.31895447 C395.96687777 277.91164502 395.9623939 284.50427089 395.9508667 291.09695816 C395.94823118 293.51076251 395.94896619 295.92457336 395.95339203 298.33837509 C395.95889276 301.64419248 395.95195867 304.94976733 395.94203186 308.25556946 C395.9464933 309.20073079 395.95095475 310.14589212 395.95555139 311.11969471 C395.83707379 331.59346788 388.20168353 347.41343826 374.60603333 362.45991516 C372.68806458 364.26069641 372.68806458 364.26069641 370.68806458 364.26069641 C370.68806458 364.92069641 370.68806458 365.58069641 370.68806458 366.26069641 C364.11524965 372.06707002 356.96486447 375.93985326 348.68806458 378.69819641 C347.99019836 378.93248352 347.29233215 379.16677063 346.57331848 379.40815735 C335.39647313 382.86881333 324.05003132 383.55615521 312.42082214 383.52139282 C311.02895899 383.52442109 309.63709751 383.52831392 308.2452389 383.53298539 C304.45753091 383.54318762 300.6699184 383.54110361 296.88220286 383.5368048 C292.78249664 383.53432324 288.68281256 383.54336949 284.58311462 383.55084229 C276.56470904 383.56355286 268.546337 383.56538745 260.52792303 383.56304202 C254.00426959 383.56125423 247.48062627 383.56301838 240.95697403 383.56726646 C239.56073654 383.56815925 239.56073654 383.56815925 238.13629223 383.56907007 C236.24487506 383.57028191 234.3534579 383.57149604 232.46204074 383.57271244 C214.74673406 383.58357445 197.03144644 383.58143214 179.3161387 383.5753276 C163.14406112 383.57016249 146.97204384 383.58140556 130.79997818 383.60042582 C114.16003658 383.61984494 97.52012346 383.62805291 80.88017046 383.62430257 C71.55202984 383.62239633 62.2239405 383.62482129 52.89580917 383.63901711 C44.95235551 383.65098411 37.00898467 383.65227676 29.06552975 383.64022694 C25.02059951 383.63437467 20.97582037 383.6331362 16.93090057 383.64522934 C-35.78664109 383.79166565 -35.78664109 383.79166565 -56.31193542 367.26069641 C-57.82787292 366.17788391 -57.82787292 366.17788391 -59.37443542 365.07319641 C-74.13474985 352.18919314 -81.60224855 331.18184586 -83.10526466 312.19268227 C-83.57291725 303.29542292 -83.45951637 294.37945855 -83.4571991 285.47236633 C-83.460195 283.16983994 -83.46359852 280.86731406 -83.46737671 278.56478882 C-83.47617608 272.33741544 -83.47855308 266.11005583 -83.4791925 259.88267684 C-83.4799052 255.98554769 -83.48204368 252.088422 -83.48468971 248.19129372 C-83.49345316 235.27851745 -83.4981111 222.36575088 -83.49735924 209.45297178 C-83.49731928 208.75876651 -83.49727933 208.06456125 -83.49723816 207.34931946 C-83.49719728 206.65425505 -83.4971564 205.95919064 -83.49711428 205.24306367 C-83.49670796 193.98279005 -83.50627746 182.7225499 -83.52037653 171.46228596 C-83.53477946 159.86677348 -83.54146192 148.27127882 -83.54078275 136.67575723 C-83.54052857 130.17919019 -83.54333548 123.68266106 -83.5539608 117.18610191 C-83.56368613 111.0735548 -83.56369068 104.96108153 -83.55644417 98.84853172 C-83.55540389 96.61497896 -83.55772783 94.38142148 -83.56380463 92.14787674 C-83.62672877 67.40267474 -81.14635871 44.91235212 -65.57365417 24.51850891 C-64.31193542 23.26069641 -64.31193542 23.26069641 -62.31193542 23.26069641 C-62.31193542 22.60069641 -62.31193542 21.94069641 -62.31193542 21.26069641 C-60.32687028 19.54727176 -58.34189393 17.95790511 -56.24943542 16.38569641 C-55.68804871 15.95128235 -55.12666199 15.51686829 -54.54826355 15.06929016 C-48.50423536 10.46892128 -42.43934281 7.06360817 -35.18693542 4.63569641 C-34.0087323 4.23093079 -32.83052917 3.82616516 -31.61662292 3.40913391 C-21.26585865 0.39454948 -10.70878523 -0.03189566 0 0 Z M-29.31193542 58.26069641 C-32.26478259 62.99063701 -34.4337659 67.76391742 -34.44336319 73.39692783 C-34.44720433 74.24319912 -34.45104548 75.0894704 -34.45500302 75.96138626 C-34.45413654 76.89132698 -34.45327006 77.82126769 -34.45237732 78.77938843 C-34.45534844 79.76719927 -34.45831956 80.75501011 -34.46138072 81.77275461 C-34.47008459 85.09825215 -34.47157741 88.42371376 -34.47306824 91.7492218 C-34.47769531 94.12749814 -34.48271982 96.50577374 -34.4881134 98.88404846 C-34.50125235 105.35747499 -34.50772229 111.83089462 -34.51212406 118.30433202 C-34.51488717 122.34827954 -34.51912475 126.39222467 -34.52362823 130.43617058 C-34.53582314 141.63703416 -34.54612074 152.83789583 -34.54950333 164.03876591 C-34.54972289 164.75577446 -34.54994246 165.47278301 -34.55016868 166.21151909 C-34.55038696 166.93023256 -34.55060523 167.64894602 -34.55083013 168.38943869 C-34.55127359 169.84579218 -34.55172015 171.30214566 -34.5521698 172.75849915 C-34.55239123 173.48089893 -34.55261266 174.20329871 -34.5528408 174.94758939 C-34.55678517 186.64185149 -34.57422715 198.33605113 -34.59752932 210.03028912 C-34.62127126 222.04246669 -34.63370654 234.05461296 -34.63487124 246.06681436 C-34.63578662 252.80873828 -34.64150382 259.55058091 -34.65969086 266.29248238 C-34.6761792 272.638018 -34.67832319 278.98339955 -34.66955185 285.32894897 C-34.66878182 287.65490062 -34.67311966 289.98086056 -34.6830101 292.30679131 C-34.69574549 295.48908305 -34.68984371 298.67083048 -34.6794281 301.8531189 C-34.68748451 302.76744456 -34.69554091 303.68177022 -34.70384145 304.62380272 C-34.63398673 313.78808356 -32.76672872 321.83273522 -26.34318542 328.56929016 C-20.05424673 333.80604103 -12.5504446 335.38369473 -4.53966236 335.38933086 C-3.37938678 335.39255531 -2.21911119 335.39577976 -1.02367574 335.39910191 C0.24673369 335.39755331 1.51714312 335.39600471 2.8260498 335.39440918 C4.19267251 335.3962777 5.55929469 335.39857857 6.92591602 335.4012745 C10.68064175 335.40739401 14.43534522 335.40725872 18.1900748 335.40608013 C22.23998094 335.40587615 26.28987991 335.41139461 30.33978271 335.4161377 C38.27470907 335.42444604 46.20962799 335.42719264 54.14455833 335.42775007 C60.59553724 335.42822522 67.0465137 335.43027992 73.49749184 335.4334507 C91.78935514 335.4422584 110.08121257 335.44686999 128.37307801 335.44612022 C129.35930629 335.44608027 130.34553457 335.44604031 131.36164856 335.44599915 C132.34908205 335.44595826 133.33651554 335.44591738 134.35387126 335.44587526 C150.35146084 335.44546894 166.34902685 335.45503472 182.34660961 335.46913751 C198.77493815 335.48350565 215.20325521 335.49040743 231.63159019 335.48954374 C240.85391822 335.48921188 250.07622156 335.49195394 259.29854393 335.50272179 C267.15203607 335.51183262 275.00549234 335.5139973 282.85898747 335.50721236 C286.8642382 335.50394988 290.86942014 335.50388062 294.87466431 335.51256561 C298.54565239 335.52044373 302.21651729 335.51898583 305.88750241 335.51028148 C307.83536792 335.50802693 309.78323729 335.51556492 311.73108786 335.52352113 C323.44721966 335.47759984 332.84126683 334.52711913 341.68806458 326.26069641 C347.71985426 318.41660294 347.83829016 310.03105163 347.82177734 300.49549866 C347.8240429 299.529477 347.82630846 298.56345534 347.82864267 297.5681603 C347.83495842 294.34033456 347.83415486 291.11255107 347.83332825 287.88471985 C347.83632126 285.56658881 347.83972412 283.24845826 347.84350586 280.93032837 C347.85233588 274.63887997 347.85468357 268.34744517 347.85532165 262.05599117 C347.85603275 258.12324062 347.85816823 254.19049353 347.86081886 250.25774384 C347.86959196 237.23982707 347.87423899 224.22191886 347.87348839 211.20399913 C347.87344843 210.50292896 347.87340848 209.80185879 347.87336731 209.07954407 C347.87332643 208.37761229 347.87328555 207.67568052 347.87324343 206.95247808 C347.87283717 195.58248678 347.88240272 184.21252863 347.89650568 172.84254691 C347.91089081 161.15229154 347.91777467 149.46205232 347.9169119 137.77178788 C347.91665721 131.21491146 347.91949219 124.65807256 347.93008995 118.10120392 C347.93978881 111.93210218 347.93983779 105.7630737 347.93257332 99.59396935 C347.93152968 97.33455231 347.93387719 95.07513067 347.93993378 92.81572151 C347.94768804 89.72167194 347.94298617 86.62787318 347.93530273 83.53382874 C347.94301808 82.20582076 347.94301808 82.20582076 347.95088929 80.85098433 C347.89915655 71.36623468 347.47076707 62.9291399 340.55915833 55.91694641 C326.12519442 43.14032701 299.45128185 48.09935479 281.33888614 48.0859946 C277.39420135 48.08203874 273.44952898 48.07246635 269.50485229 48.06378174 C260.02169976 48.04418594 250.53854642 48.03398244 241.05537876 48.02505395 C237.47754668 48.02153602 233.89971545 48.01739093 230.32188408 48.01321429 C214.52890794 47.99478104 198.73593175 47.97902566 182.94294643 47.97131634 C179.09423255 47.96940688 175.24551867 47.96748645 171.39680481 47.9655304 C170.44038544 47.96504666 169.48396608 47.96456292 168.49856431 47.96406452 C152.96668902 47.95574396 137.43489021 47.93035832 121.90304839 47.89794972 C105.92518822 47.86488353 89.94736703 47.84686883 73.96947247 47.8436721 C65.01057952 47.8415089 56.05179886 47.8327855 47.09293938 47.80721092 C39.47503117 47.78551178 31.85726268 47.77745045 24.23932707 47.7871777 C20.35554165 47.79172181 16.47204465 47.78982902 12.5882988 47.77041626 C8.37517094 47.74953841 4.16268275 47.75976927 -0.05047607 47.77294922 C-1.27264959 47.76197997 -2.49482311 47.75101073 -3.75403219 47.73970908 C-13.93457213 47.81664683 -22.42412847 50.40680745 -29.31193542 58.26069641 Z " fill="#F6F8F8" transform="translate(97.31193542480469,17.739303588867188)"/>
<path d="M0 0 C0.70125 0.00064453 1.4025 0.00128906 2.125 0.00195312 C8.17857562 0.17539198 12.45162435 1.81654116 17.1875 5.5 C17.1875 6.16 17.1875 6.82 17.1875 7.5 C17.9196875 7.7475 18.651875 7.995 19.40625 8.25 C22.46734606 9.62577351 24.27138861 11.18318086 26.6875 13.5 C30.60235251 17.13396624 34.62118612 20.4688928 38.875 23.6875 C42.84384771 26.6939435 46.73000721 29.74223127 50.47265625 33.02734375 C52.54252238 34.80488254 54.67368568 36.49355906 56.8125 38.1875 C61.3835512 41.82214466 65.85046297 45.56491043 70.28833008 49.35986328 C73.79387908 52.35045245 77.37294148 55.21912726 81 58.0625 C87.94177284 63.71537642 95.42951477 70.82579236 96.48828125 80.1484375 C96.52671847 89.09149699 94.38591523 94.79651771 88.33203125 101.3984375 C84.22096761 105.4271301 79.70920584 108.94767784 75.1875 112.5 C73.51983411 113.83208335 71.85313277 115.16537533 70.1875 116.5 C69.36765625 117.15484375 68.5478125 117.8096875 67.703125 118.484375 C60.12190176 124.55877126 52.67832242 130.77274061 45.32275391 137.11694336 C41.09713646 140.75046202 36.78643078 144.25582288 32.41015625 147.70703125 C30.29549748 149.41288076 28.27013202 151.18392172 26.25 153 C17.67664968 160.53625149 9.15347776 168.00500149 -2.8125 167.5625 C-10.92739588 166.39062839 -16.64283711 161.24667599 -21.71875 155.11328125 C-24.17079846 151.49650977 -24.00840767 147.92022493 -24.0625 143.6875 C-24.08828125 142.48480469 -24.1140625 141.28210938 -24.140625 140.04296875 C-23.3308888 131.29974572 -16.82734753 124.96978545 -10.453125 119.4609375 C-7.92893713 117.44319496 -5.37371719 115.47046025 -2.8125 113.5 C15.85819967 98.74644572 15.85819967 98.74644572 33.1875 82.5 C32.6821875 82.16226563 32.176875 81.82453125 31.65625 81.4765625 C30.68171875 80.80753906 30.68171875 80.80753906 29.6875 80.125 C28.71296875 79.46371094 28.71296875 79.46371094 27.71875 78.7890625 C27.2134375 78.36367187 26.708125 77.93828125 26.1875 77.5 C26.1875 76.84 26.1875 76.18 26.1875 75.5 C25.60871094 75.23058594 25.02992188 74.96117187 24.43359375 74.68359375 C17.27898456 70.91342578 11.19575864 64.85503846 5.06347656 59.6237793 C1.75750195 56.80849005 -1.58832683 54.06249726 -5 51.375 C-23.03234562 36.96089012 -23.03234562 36.96089012 -24.21484375 27.16796875 C-24.60140592 18.31475219 -23.12277531 13.26858306 -17.26953125 6.79296875 C-15.8125 5.5 -15.8125 5.5 -13.8125 5.5 C-13.8125 4.84 -13.8125 4.18 -13.8125 3.5 C-9.18415119 0.79353164 -5.28937073 -0.04533746 0 0 Z " fill="#F6F8F8" transform="translate(134.8125,138.5)"/>
<path d="M0 0 C1.80667145 -0.0076664 1.80667145 -0.0076664 3.64984131 -0.01548767 C6.92884865 -0.02694584 10.20769792 -0.02946704 13.48671985 -0.02692437 C16.23501117 -0.02584837 18.98327963 -0.03075392 21.73156601 -0.03552979 C28.220313 -0.04659206 34.70900207 -0.04708072 41.19775391 -0.04101562 C47.86828624 -0.03497607 54.53860764 -0.04729381 61.209104 -0.06858569 C66.95887696 -0.08625667 72.70858311 -0.09219449 78.45838219 -0.08894795 C81.88252992 -0.08714393 85.30652708 -0.08968255 88.73064995 -0.10366249 C92.55236793 -0.11604647 96.37360183 -0.10922298 100.1953125 -0.09765625 C101.31406265 -0.10529999 102.43281281 -0.11294373 103.58546448 -0.12081909 C111.48530672 -0.06817162 118.63761136 0.91230954 125.53735352 4.9621582 C131.14965188 11.06965936 133.04991547 18.22720721 132.93188477 26.3605957 C132.23467802 33.89851215 128.75088989 38.79288078 123.24829102 43.7668457 C115.51117349 48.27821634 107.31994483 48.70887656 98.5625 48.64697266 C97.39531433 48.65062332 96.22812866 48.65427399 95.02557373 48.65803528 C91.19471361 48.66609425 87.36428266 48.65256968 83.53344727 48.63793945 C80.85644442 48.63742032 78.17945744 48.63788803 75.50245667 48.63945007 C69.90344187 48.64032997 64.30454885 48.62931565 58.70556641 48.61083984 C52.25258376 48.58966652 45.79977916 48.58616639 39.3467688 48.5924018 C33.11145097 48.59811603 26.87619519 48.5924263 20.64088631 48.58122826 C17.99958611 48.57738891 15.35828058 48.57622278 12.71697807 48.5778141 C9.02215379 48.57818636 5.32759653 48.56551964 1.6328125 48.54931641 C0.00775536 48.55303253 0.00775536 48.55303253 -1.65013123 48.55682373 C-10.92634795 48.49214058 -20.18415785 47.77357925 -27.33764648 41.2746582 C-32.55096739 33.91391479 -34.14477972 27.21161166 -33.33764648 18.2746582 C-31.85877393 11.68095893 -29.25698305 7.43151426 -23.82592773 3.4309082 C-16.26312659 -0.08336046 -8.18737282 -0.01809779 0 0 Z " fill="#F7F8F8" transform="translate(264.337646484375,257.725341796875)"/>
</svg>
